<?xml version="1.0" encoding="UTF-8" standalone="no"?>
<!-- Created with Inkscape (http://www.inkscape.org/) -->

<svg
   width="65.796585mm"
   height="22.998604mm"
   viewBox="0 0 65.796585 22.998604"
   version="1.1"
   id="svg1"
   xml:space="preserve"
   inkscape:version="1.3 (0e150ed6c4, 2023-07-21)"
   sodipodi:docname="hipologo.svg"
   xmlns:inkscape="http://www.inkscape.org/namespaces/inkscape"
   xmlns:sodipodi="http://sodipodi.sourceforge.net/DTD/sodipodi-0.dtd"
   xmlns="http://www.w3.org/2000/svg"
   xmlns:svg="http://www.w3.org/2000/svg"><sodipodi:namedview
     id="namedview1"
     pagecolor="#ffffff"
     bordercolor="#000000"
     borderopacity="0.25"
     inkscape:showpageshadow="2"
     inkscape:pageopacity="0.0"
     inkscape:pagecheckerboard="0"
     inkscape:deskcolor="#d1d1d1"
     inkscape:document-units="mm"
     inkscape:zoom="2.2379368"
     inkscape:cx="103.66691"
     inkscape:cy="19.437546"
     inkscape:window-width="1366"
     inkscape:window-height="715"
     inkscape:window-x="-8"
     inkscape:window-y="-8"
     inkscape:window-maximized="1"
     inkscape:current-layer="layer1" /><defs
     id="defs1"><clipPath
       clipPathUnits="userSpaceOnUse"
       id="clipPath2"><rect
         style="fill:#0a0f19;stroke:#0a0f19;stroke-width:0.928857;paint-order:stroke fill markers"
         id="rect3"
         width="71.355591"
         height="27.382658"
         x="75.174118"
         y="104.43366" /></clipPath><clipPath
       clipPathUnits="userSpaceOnUse"
       id="clipPath4"><rect
         style="fill:#0a0f19;stroke:#0a0f19;stroke-width:1.05833;paint-order:stroke fill markers"
         id="rect5"
         width="70.699417"
         height="29.32016"
         x="46.108315"
         y="71.172325" /></clipPath><clipPath
       clipPathUnits="userSpaceOnUse"
       id="clipPath7"><rect
         style="fill:#0a0f19;stroke:#0a0f19;stroke-width:0.995659;paint-order:stroke fill markers"
         id="rect7"
         width="65.796585"
         height="22.998604"
         x="49.563507"
         y="72.205025" /></clipPath></defs><g
     inkscape:label="Layer 1"
     inkscape:groupmode="layer"
     id="layer1"
     transform="translate(-6.5290781,-5.5253057)"><path
       style="fill:#000000"
       d="m 90.962718,116.11466 c -0.40296,-0.16515 -0.56114,-0.48214 -0.58726,-1.17681 -0.0197,-0.52293 0.0591,-0.95077 0.17496,-0.95077 0.11589,0 0.15543,-0.37659 0.0879,-0.83686 -0.14879,-1.01374 0.43692,-1.54439 1.70463,-1.54439 0.47293,0 0.93345,-0.11906 1.02338,-0.26459 0.52349,-0.84701 1.01724,0.68191 0.56951,1.76352 -0.23945,0.57846 -0.81401,0.8391 -2.02472,0.91844 -0.3638,0.0239 -0.12567,0.11477 0.52917,0.20205 0.94271,0.12566 1.20706,0.27371 1.26954,0.71102 0.0434,0.30378 -0.0757,0.67698 -0.26458,0.82935 -0.51577,0.41596 -1.8586,0.60476 -2.48251,0.34904 z m 1.34526,-0.54008 c 0.0931,-0.15066 -0.13475,-0.26459 -0.52917,-0.26459 -0.39442,0 -0.62227,0.11393 -0.52916,0.26459 0.0899,0.14552 0.32806,0.26458 0.52916,0.26458 0.20111,0 0.43923,-0.11906 0.52917,-0.26458 z m 0.39282,-3.10886 c 0.006,-0.47256 -0.43843,-0.40908 -0.62996,0.09 -0.22036,0.57425 0.10463,1.06339 0.39845,0.59968 0.1251,-0.19744 0.22928,-0.5078 0.23151,-0.68971 z m -24.690968,2.40273 c -0.09733,-0.0973 -0.01094,-0.36523 0.191972,-0.59532 0.487744,-0.55306 0.828308,-3.0801 0.44687,-3.31584 -0.526222,-0.32522 -0.292916,-0.61409 0.636847,-0.78852 0.525488,-0.0986 1.16101,-0.0453 1.477059,0.12385 0.48022,0.25701 0.50167,0.33848 0.15976,0.60661 -0.21722,0.17035 -0.476281,0.93428 -0.57568,1.69762 -0.149484,1.14798 -0.106151,1.41652 0.25067,1.55345 0.24207,0.0929 0.652,-0.0341 0.93404,-0.28934 0.27645,-0.25019 0.62063,-0.38196 0.76485,-0.29283 0.14421,0.0891 0.33734,-0.0747 0.42918,-0.36406 0.26144,-0.82371 1.4384,-1.59824 2.42865,-1.59824 1.62774,0 1.50126,1.45296 -0.17501,2.01049 -1.01059,0.33612 -0.65222,0.7424 0.41793,0.4738 0.53802,-0.13503 0.67912,-0.0893 0.58739,0.19035 -0.0664,0.20244 -0.57155,0.48163 -1.12255,0.62043 -0.78462,0.19765 -1.16326,0.1597 -1.74651,-0.17504 -0.62836,-0.36063 -0.7671,-0.36905 -0.88802,-0.0539 -0.10545,0.27479 -0.65816,0.37347 -2.0919,0.37347 -1.07172,0 -2.028216,-0.0796 -2.125548,-0.17696 z m 6.876638,-2.08341 c 0.21426,-0.55836 -0.14337,-0.85981 -0.4482,-0.3778 -0.32391,0.51217 -0.31741,0.78609 0.0186,0.78609 0.15009,0 0.34339,-0.18373 0.42956,-0.40829 z m 3.70957,2.08628 c -0.0957,-0.0957 -0.0267,-0.35176 0.15356,-0.5689 0.19036,-0.22936 0.32799,-1.15841 0.32844,-2.21707 l 7.7e-4,-1.82227 1.85209,0.0761 c 1.70594,0.0701 1.8589,0.12418 1.93854,0.68594 0.0476,0.33543 -0.0639,0.79099 -0.24757,1.01235 -0.26971,0.32498 -0.26726,0.44375 0.0128,0.61681 0.50926,0.31473 0.42284,1.63283 -0.13373,2.03981 -0.49138,0.3593 -3.5825,0.49963 -3.90486,0.17727 z m 2.68399,-1.36799 c 0.0562,-0.38158 -0.0549,-0.57459 -0.33073,-0.57459 -0.27015,0 -0.41528,0.23888 -0.41528,0.68351 0,0.82887 0.62137,0.73815 0.74601,-0.10892 z m 0.0477,-2.02979 c 0,-0.36381 -0.11906,-0.66146 -0.26458,-0.66146 -0.14552,0 -0.26459,0.29765 -0.26459,0.66146 0,0.3638 0.11907,0.66145 0.26459,0.66145 0.14552,0 0.26458,-0.29765 0.26458,-0.66145 z m 2.45495,1.5875 c 0.0866,-1.1444 0.0467,-1.98438 -0.0941,-1.98438 -0.1343,0 -0.24418,-0.10741 -0.24418,-0.2387 0,-0.22381 1.38306,-0.81963 1.9026,-0.81963 0.13345,0 0.15794,0.8629 0.0563,1.98437 -0.14505,1.60071 -0.10882,1.98608 0.18741,1.99318 0.59071,0.0142 -0.8102,1.04953 -1.42007,1.04953 -0.50652,0 -0.52925,-0.11627 -0.38797,-1.98437 z m 2.62505,1.66687 c -0.53612,-0.53612 -0.37633,-1.91624 0.29487,-2.54679 0.67901,-0.6379 2.24836,-0.78373 2.7743,-0.25779 0.58456,0.58457 0.3792,1.97681 -0.37964,2.57371 -0.76824,0.6043 -2.19374,0.72666 -2.68953,0.23087 z m 1.84376,-1.40229 c 0.0482,-0.43656 -0.0314,-0.85328 -0.17688,-0.92604 -0.15152,-0.0758 -0.29999,0.3765 -0.34744,1.05833 -0.0928,1.33352 0.37543,1.21538 0.52432,-0.13229 z m 6.30541,1.07674 c 0,-0.55371 0.12615,-0.67987 0.67986,-0.67987 0.5537,0 0.66417,0.11047 0.59531,0.59532 -0.0543,0.38257 -0.29728,0.62552 -0.67986,0.67986 -0.48484,0.0689 -0.59531,-0.0416 -0.59531,-0.59531 z m 1.94806,0.24695 c -0.0914,-0.23827 -0.044,-0.55544 0.10537,-0.70483 0.4313,-0.4313 1.25386,-0.14062 1.25386,0.4431 0,0.67301 -1.11874,0.88843 -1.35923,0.26173 z m 2.12123,0.0119 c -0.20338,-0.53 0.0984,-0.93872 0.69321,-0.93872 0.60887,0 0.849052,0.34177 0.63401,0.90217 -0.20205,0.52653 -1.1294,0.55207 -1.32722,0.0366 z m -50.900543,-9.12518 c 0,-0.13694 0.119063,-0.32256 0.264584,-0.41249 0.377987,-0.23361 0.336599,-2.97461 -0.04685,-3.10242 -0.653372,-0.21779 0.123897,-0.73404 1.105178,-0.73404 1.022574,0 1.574728,0.34231 1.062649,0.65879 -0.147894,0.0914 -0.268899,0.81401 -0.268899,1.60578 0,1.35918 0.03695,1.43959 0.661458,1.43959 0.431147,0 0.661459,-0.14804 0.661459,-0.42518 0,-0.26924 0.145562,-0.36932 0.396875,-0.27288 0.262873,0.10087 0.396875,-0.01 0.396875,-0.32757 0,-0.63907 0.824355,-1.35562 1.559581,-1.35562 0.886111,0 1.615419,0.48201 1.615419,1.06765 0,0.42003 -0.182048,0.51985 -0.948091,0.51985 -0.644475,0 -0.910627,0.10592 -0.831106,0.33073 0.06755,0.19096 0.468215,0.30235 0.948091,0.26358 0.930699,-0.0752 1.098332,0.30239 0.319333,0.7193 -0.746919,0.39974 -1.62764,0.33532 -2.173857,-0.159 -0.442876,-0.40079 -0.490653,-0.40079 -0.644453,0 -0.133073,0.34679 -0.555204,0.43289 -2.122183,0.43289 -1.075837,0 -1.956068,-0.11203 -1.956068,-0.24896 z m 6.217709,-2.13229 c -0.08994,-0.14552 -0.275558,-0.26458 -0.41249,-0.26458 -0.136933,0 -0.248969,0.11906 -0.248969,0.26458 0,0.14553 0.185621,0.26459 0.41249,0.26459 0.22687,0 0.338905,-0.11906 0.248969,-0.26459 z m 4.159913,1.96938 c -1.341957,-0.93995 -0.387915,-2.76313 1.445899,-2.76313 1.058996,0 1.637048,0.8015 0.97458,1.3513 -0.354362,0.29409 -0.477611,0.26966 -0.789182,-0.15644 -0.278982,-0.38153 -0.443858,-0.43033 -0.67453,-0.19966 -0.460119,0.46012 0.253369,1.19347 1.018791,1.04715 0.758726,-0.14504 0.829845,0.46796 0.09963,0.85876 -0.720273,0.38548 -1.391567,0.34084 -2.075188,-0.13798 z m 3.026125,0.21572 c -0.07681,-0.12429 -0.03028,-0.39889 0.10341,-0.61023 0.347149,-0.54876 0.308468,-2.56656 -0.05349,-2.79026 -0.385421,-0.23821 0.45989,-0.90127 1.148985,-0.90127 0.353109,0 0.478597,0.20376 0.478597,0.77711 0,0.73123 0.0515,0.76876 0.87217,0.63559 1.097925,-0.17817 1.434811,0.20586 1.545966,1.7623 l 0.08503,1.19062 H 64.394395 63.47873 l 0.08332,-1.15398 c 0.06289,-0.87108 -0.0032,-1.12448 -0.269771,-1.03366 -0.213616,0.0728 -0.353092,0.52863 -0.353092,1.15398 0,0.96637 -0.05436,1.03894 -0.835065,1.11472 -0.459286,0.0446 -0.897914,-0.0206 -0.97473,-0.14492 z m 4.889863,-0.4779 c -1.082002,-1.37555 0.299012,-2.94844 2.050317,-2.33519 0.414847,0.14526 0.724197,0.47727 0.774996,0.83176 0.07423,0.51801 -0.03335,0.58998 -0.881944,0.58998 -0.659254,0 -0.92927,0.10514 -0.849402,0.33073 0.0644,0.18191 0.431509,0.30832 0.815799,0.28092 0.771402,-0.055 0.978411,0.54732 0.280193,0.81526 -0.866244,0.3324 -1.673474,0.14314 -2.189959,-0.51346 z m 1.55014,-1.7072 c 0,-0.14552 -0.119062,-0.26458 -0.264583,-0.26458 -0.145521,0 -0.264583,0.11906 -0.264583,0.26458 0,0.14553 0.119062,0.26459 0.264583,0.26459 0.145521,0 0.264583,-0.11906 0.264583,-0.26459 z m 2.777439,1.3214 c -0.262861,-0.58292 -0.638131,-1.19281 -0.833933,-1.35531 -0.619881,-0.51446 -0.389329,-0.75984 0.713926,-0.75984 0.872211,0 1.055561,0.0856 0.992191,0.46303 -0.0453,0.26973 0.0879,0.46302 0.31913,0.46302 0.2312,0 0.36442,-0.19329 0.31913,-0.46302 -0.0606,-0.36068 0.10933,-0.46303 0.76861,-0.46303 0.7815,0 0.81581,0.0355 0.44778,0.46303 -0.21921,0.25466 -0.67631,0.96903 -1.01577,1.5875 -0.33946,0.61846 -0.75578,1.12447 -0.92516,1.12447 -0.16939,0 -0.52304,-0.47693 -0.785904,-1.05985 z m 3.285434,0.63582 c -0.45484,-0.54805 -0.0864,-1.15491 0.81005,-1.3342 0.44,-0.088 0.79999,-0.32371 0.79999,-0.5238 0,-0.4466 -0.12794,-0.45362 -0.7853,-0.0431 -0.64256,0.40129 -0.99434,0.0973 -0.53205,-0.4597 0.23561,-0.2839 0.68955,-0.39116 1.42677,-0.33713 1.02429,0.0751 1.08583,0.12794 1.16897,1.00423 0.0954,1.00516 0.49567,1.66801 0.86826,1.43774 0.34773,-0.21491 0.28453,-2.60384 -0.0785,-2.96686 -0.41385,-0.41385 -0.21242,-0.57741 0.94177,-0.76471 l 0.95882,-0.1556 0.0397,1.8867 c 0.0218,1.03769 0.0516,2.03553 0.0662,2.21743 0.0344,0.42999 -1.61679,0.59135 -2.08394,0.20365 -0.2116,-0.17561 -0.41794,-0.19532 -0.50863,-0.0486 -0.24155,0.39085 -2.74949,0.2967 -3.09206,-0.11607 z m 1.61004,-0.6343 c 0,-0.14552 -0.11906,-0.26458 -0.26458,-0.26458 -0.14552,0 -0.26458,0.11906 -0.26458,0.26458 0,0.14552 0.11906,0.26458 0.26458,0.26458 0.14552,0 0.26458,-0.11906 0.26458,-0.26458 z m 7.03476,0.69708 c -0.21516,-0.16511 -0.46758,-0.61731 -0.56091,-1.00488 -0.21232,-0.88163 0.62028,-1.80887 1.62425,-1.80887 0.53564,0 0.65188,-0.0987 0.52021,-0.44186 -0.1951,-0.50841 0.25334,-0.87114 1.08423,-0.877 0.53301,-0.004 0.58068,0.14374 0.66146,2.04647 0.0479,1.12779 -0.0168,2.12608 -0.14376,2.21843 -0.39089,0.28438 -2.77131,0.18552 -3.18548,-0.13229 z m 1.69649,-1.35854 c 0,-0.50932 -0.10517,-0.92604 -0.23372,-0.92604 -0.30526,0 -0.564,1.00471 -0.38133,1.48073 0.26541,0.69164 0.61505,0.37631 0.61505,-0.55469 z m 2.55455,1.23594 c -0.99451,-1.09892 -0.20887,-2.69115 1.32788,-2.69115 0.85376,0 1.84399,0.83353 1.55184,1.30625 -0.0956,0.15469 -0.57978,0.28125 -1.07595,0.28125 -0.70652,0 -0.86797,0.089 -0.74459,0.41053 0.11468,0.29887 0.36431,0.36512 0.91774,0.24357 0.797,-0.17506 0.97961,0.079 0.4427,0.6159 -0.48195,0.48195 -1.92255,0.38291 -2.41962,-0.16635 z m 1.67879,-1.8974 c 0,-0.14552 -0.1786,-0.26458 -0.39688,-0.26458 -0.21828,0 -0.39687,0.11906 -0.39687,0.26458 0,0.14553 0.17859,0.26459 0.39687,0.26459 0.21828,0 0.39688,-0.11906 0.39688,-0.26459 z m 4.28625,2.06375 c -0.17463,-0.17462 -0.3175,-0.76993 -0.3175,-1.32291 0,-0.55298 -0.11907,-1.00542 -0.26459,-1.00542 -0.50404,0 -0.25695,-0.39961 0.6135,-0.99219 1.0733,-0.73067 1.23859,-0.7395 1.23859,-0.0661 0,0.29398 0.17639,0.52916 0.39687,0.52916 0.21828,0 0.39688,0.11907 0.39688,0.26459 0,0.14552 -0.1786,0.26458 -0.39688,0.26458 -0.27942,0 -0.39687,0.28243 -0.39687,0.95435 0,0.73961 0.0893,0.92008 0.39687,0.80205 0.23303,-0.0894 0.39688,-0.004 0.39688,0.20797 0,0.66467 -1.49873,0.92898 -2.06375,0.36396 z m 2.46727,0.0637 c -0.0863,-0.1396 -0.005,-0.49678 0.18033,-0.79375 0.27464,-0.43978 0.27178,-0.64465 -0.0154,-1.10455 -0.2941,-0.47093 -0.29368,-0.60198 0.002,-0.7897 0.49333,-0.31267 1.54574,-0.28976 1.54574,0.0336 0,0.15929 0.21061,0.1353 0.52257,-0.0595 0.6393,-0.39925 1.22774,0.0451 0.96531,0.72902 -0.12288,0.32021 -0.35224,0.39695 -0.82888,0.27732 -0.53438,-0.13412 -0.659,-0.0673 -0.659,0.3532 0,0.28523 0.11907,0.59218 0.26459,0.68211 0.14552,0.0899 0.26458,0.33509 0.26458,0.54478 0,0.43976 -1.97974,0.55228 -2.24231,0.12744 z m 3.64304,-0.18961 c -0.23767,-0.61936 0.27128,-1.26428 1.07335,-1.36008 0.706682,-0.0844 0.915942,-0.41362 0.447102,-0.70338 -0.139602,-0.0863 -0.491372,-0.009 -0.781722,0.17281 -0.6999,0.4371 -1.09329,0.0158 -0.43483,-0.46567 0.63432,-0.46383 2.104442,-0.4903 2.472082,-0.0445 0.15002,0.18191 0.31343,0.86651 0.36313,1.52136 l 0.0904,1.19062 -1.53373,0.0555 c -1.195192,0.0433 -1.569492,-0.0376 -1.695752,-0.36669 z m 1.774272,-0.6149 c 0,-0.14552 -0.11906,-0.26458 -0.26458,-0.26458 -0.145522,0 -0.264592,0.11906 -0.264592,0.26458 0,0.14552 0.11907,0.26458 0.264592,0.26458 0.14552,0 0.26458,-0.11906 0.26458,-0.26458 z m 2.77962,-0.33454 c -0.43574,-0.76189 -0.83261,-1.47455 -0.88194,-1.58369 -0.0493,-0.10914 0.4017,-0.19844 1.00229,-0.19844 0.7201,0 1.07735,0.11264 1.04903,0.33073 -0.10924,0.84122 0.0113,1.06397 0.4009,0.74066 0.20963,-0.17398 0.31595,-0.48621 0.23627,-0.69385 -0.10662,-0.27787 0.0757,-0.37754 0.69065,-0.37754 h 0.83553 l -0.6222,0.8599 c -0.34221,0.47294 -0.78511,1.18732 -0.98422,1.5875 -0.19911,0.40018 -0.49072,0.72589 -0.64803,0.72379 -0.15732,-0.002 -0.64254,-0.62717 -1.07828,-1.38906 z m 3.54784,0.96884 c -0.45484,-0.54805 -0.0864,-1.15491 0.81005,-1.3342 0.43999,-0.088 0.79999,-0.32371 0.79999,-0.5238 0,-0.42238 -0.42256,-0.48577 -0.66146,-0.0992 -0.24449,0.39559 -0.92604,0.31906 -0.92604,-0.10398 0,-0.42323 0.56232,-0.68977 1.45521,-0.68977 1.12103,0 1.45521,0.27634 1.45521,1.20332 0,0.48517 0.12484,0.95928 0.27743,1.05358 0.1926,0.11904 0.19044,0.27628 -0.007,0.51426 -0.38524,0.46418 -2.81404,0.44888 -3.20333,-0.0202 z m 1.61004,-0.6343 c 0,-0.14552 -0.11906,-0.26458 -0.26458,-0.26458 -0.14552,0 -0.26459,0.11906 -0.26459,0.26458 0,0.14552 0.11907,0.26458 0.26459,0.26458 0.14552,0 0.26458,-0.11906 0.26458,-0.26458 z m 2.28782,-0.11649 c 0.1274,-0.92949 0.0812,-1.20836 -0.20134,-1.21484 -0.64109,-0.0147 0.60647,-0.78534 1.27138,-0.78534 0.54175,0 0.61538,0.13476 0.65058,1.19063 0.0218,0.65484 0.0516,1.33945 0.0661,1.52135 0.0158,0.19734 -0.37255,0.36378 -0.96283,0.41268 l -0.98929,0.0819 z m 2.44185,0.99315 c -0.018,-0.11836 -0.007,-0.84428 0.025,-1.61314 0.0318,-0.76887 -0.0802,-1.56424 -0.24884,-1.76749 -0.24126,-0.2907 -0.19386,-0.42993 0.22216,-0.65258 0.29087,-0.15567 0.77481,-0.28303 1.07542,-0.28303 0.49653,0 0.55019,0.16955 0.58625,1.85208 0.0218,1.01865 0.0516,2.00091 0.0661,2.18281 0.0288,0.3604 -1.67181,0.63759 -1.72616,0.28135 z m -2.48071,-3.52249 c -0.26096,-0.42224 0.11055,-0.79375 0.79375,-0.79375 0.91259,0 1.07373,0.48611 0.26328,0.79424 -0.85402,0.3247 -0.85605,0.3247 -1.05703,-4.9e-4 z m -63.985072,-2.02847 c -0.09701,-0.097 -0.176389,-0.984593 -0.176389,-1.972393 v -1.796 l 0.992187,-0.18832 c 0.545703,-0.10358 1.974453,-0.19623 3.175,-0.2059 2.042173,-0.0164 2.551941,-0.16414 1.918229,-0.5558 -0.50298,-0.31086 -0.306155,-2.18983 0.271793,-2.59464 0.451113,-0.31597 0.493171,-0.48933 0.264583,-1.09056 -0.149486,-0.39318 -0.271792,-0.77643 -0.271792,-0.85167 0,-0.0752 0.961706,-0.0973 2.137124,-0.0489 l 2.137124,0.0879 0.919496,-1.7198 c 0.505722,-0.94588 1.091829,-1.98349 1.302459,-2.30579 0.21063,-0.3223 0.382963,-0.76879 0.382963,-0.99219 0,-0.63877 0.605391,-0.49231 3.223135,0.77975 l 2.440504,1.18593 0.683384,-0.72291 c 0.375861,-0.3976 0.890224,-1.05033 1.14303,-1.45051 l 0.459646,-0.72761 h -1.070981 c -1.249413,0 -1.321937,-0.12423 -2.162472,-3.70417 -0.290419,-1.23692 -0.661211,-2.5246 -0.823984,-2.86149 -0.402517,-0.8331 0.03635,-1.48151 1.07305,-1.58538 0.609755,-0.0611 0.833661,0.0369 0.902641,0.3951 0.163678,0.84992 1.540381,-1.85985 1.540381,-3.03194 0,-1.21109 0.616308,-1.91212 1.681028,-1.91212 1.218594,0 1.665673,2.01503 0.679893,3.06435 -0.459237,0.48883 -0.520005,0.78157 -0.369957,1.78216 0.107578,0.71738 0.407355,1.40075 0.747933,1.70498 0.956742,0.85463 3.143082,1.16733 5.993912,0.85727 1.38159,-0.15026 4.50862,-0.38777 6.94897,-0.5278 2.44034,-0.14002 5.13982,-0.43671 5.99885,-0.65931 1.39545,-0.3616 1.72504,-0.36223 3.09309,-0.006 2.01516,0.52488 3.0776,0.49513 4.97424,-0.13929 0.8634,-0.28881 1.77041,-0.46144 2.01557,-0.38363 0.24516,0.0778 0.77429,0.0166 1.17585,-0.13612 0.675362,-0.25677 0.720382,-0.36392 0.600342,-1.42887 -0.11946,-1.05986 -0.0819,-1.15129 0.47326,-1.15129 0.33396,0 0.65336,0.19184 0.71584,0.42995 0.062,0.23647 0.41727,0.5925 0.78938,0.79116 0.61389,0.32776 0.82682,0.28487 2.29855,-0.46302 0.8921,-0.45333 2.01696,-0.82423 2.49969,-0.82423 0.65196,0 0.94875,-0.15311 1.15396,-0.59531 0.2739,-0.5902 0.27904,-0.58849 0.59835,0.19843 0.31931,0.78693 0.32446,0.78863 0.59835,0.19844 0.26625,-0.57373 0.70303,-0.80646 0.74481,-0.39687 0.0797,0.78083 0.28498,1.22867 0.8965,1.95543 0.43998,0.52288 0.63303,0.98846 0.52104,1.25661 -0.23223,0.55609 -0.22843,0.63615 0.13233,2.78855 0.3013,1.79763 0.29424,1.84646 -0.3614,2.5021 l -0.66869,0.66869 -0.73303,-0.69223 c -0.56934,-0.53765 -1.05799,-0.71234 -2.18824,-0.78231 l -1.45521,-0.0901 v 1.13392 c 0,1.29873 -0.4258,1.72575 -1.52136,1.5257 -0.48757,-0.089 -0.7276,-0.0198 -0.7276,0.20978 0,0.18845 -0.41035,0.82204 -0.91189,1.40798 -1.06751,1.24714 -1.02549,1.83406 0.23018,3.21525 0.8652,0.95169 0.89815,1.30952 0.28465,3.0907 -0.20049,0.58208 -0.43859,1.62388 -0.52911,2.3151 -0.0905,0.69123 -0.22655,1.25677 -0.30228,1.25677 -0.0757,0 -0.66432,-0.43152 -1.30796,-0.95893 l -1.17025,-0.95894 0.53041,-0.85823 c 0.73374,-1.18721 0.68478,-2.52359 -0.11372,-3.10389 -0.61126,-0.44423 -0.65173,-0.43386 -1.562672,0.40053 -0.6858,0.62817 -1.10558,1.38145 -1.57428,2.82501 -0.87269,2.68782 -0.78219,2.90614 1.23226,2.97249 0.892532,0.0294 1.979972,0.039 2.416542,0.0213 0.43656,-0.0177 1.98437,-0.0394 3.43958,-0.0483 1.45521,-0.009 2.82443,-0.0178 3.04271,-0.0197 0.21828,-0.002 1.52797,-0.0704 2.91041,-0.15222 1.38245,-0.0818 3.10886,-0.17187 3.83646,-0.2001 l 1.32292,-0.0513 0.0773,2.05052 0.0773,2.050523 H 81.515298 c -19.117858,0 -34.839117,-0.0794 -34.93613,-0.17638 z m 36.51058,-3.621533 c 0.0232,-0.0212 0.17364,-1.58202 0.33433,-3.4685 0.16068,-1.88647 0.40959,-3.54739 0.55313,-3.69093 0.14354,-0.14355 0.26099,-0.51885 0.26099,-0.83401 0,-0.55493 -0.12312,-0.53211 -3.90261,0.72338 -5.71099,1.89711 -5.26429,1.64031 -5.44043,3.12755 -0.0837,0.70653 -0.45852,1.88919 -0.83297,2.62813 l -0.68082,1.34354 2.45185,0.004 c 1.34852,0.002 2.62285,0.11225 2.83184,0.24449 0.29061,0.18389 4.21383,0.11499 4.42469,-0.0777 z m 6.42801,-0.1637 c 1.12768,-0.16298 1.81749,-0.15568 2.03097,0.0215 0.1778,0.14756 0.82967,0.23125 1.4486,0.18598 1.04678,-0.0766 1.17653,-0.17465 1.85909,-1.40523 0.40358,-0.7276 0.81456,-1.67836 0.91331,-2.11279 0.0987,-0.43442 0.37221,-1.08393 0.60771,-1.44335 0.3775,-0.57614 0.85853,-1.70028 1.25213,-2.92615 0.10051,-0.31304 -0.39404,-0.49674 -2.34102,-0.8696 -1.35764,-0.26 -2.71711,-0.53775 -3.02104,-0.61723 -0.42387,-0.11084 -0.58992,0.004 -0.71274,0.49351 -0.0881,0.35091 -0.46065,0.77494 -0.82794,0.94229 -0.36729,0.16734 -0.68042,0.45565 -0.69584,0.64067 -0.0945,1.1345 0.18724,2.07407 0.98042,3.26904 1.03276,1.55592 1.22809,3.02048 0.40285,3.02048 -0.27327,0 -0.92811,-0.18019 -1.45521,-0.40042 -0.70747,-0.2956 -0.95835,-0.5597 -0.95835,-1.00882 0,-0.33461 -0.30071,-1.23173 -0.66825,-1.9936 -0.36754,-0.76186 -0.76321,-1.82594 -0.87927,-2.36462 -0.20163,-0.93583 -0.22034,-0.94998 -0.4205,-0.31795 -0.11521,0.3638 -0.45118,0.92564 -0.7466,1.24852 -0.4748,0.51894 -0.52055,0.82888 -0.39429,2.67101 0.0786,1.14617 0.30306,2.34051 0.49889,2.65408 0.39768,0.6368 0.68546,0.66557 3.12708,0.31269 z m -33.589979,-0.70727 c 0,-0.0659 -0.182208,-0.47224 -0.404906,-0.90289 -0.48545,-0.93876 -0.144626,-1.83656 0.6972,-1.83656 0.406858,0 0.51762,-0.14533 0.453712,-0.59531 -0.07487,-0.52714 -0.258305,-0.60439 -1.601904,-0.67454 l -1.517357,-0.0792 0.15604,0.78019 c 0.127175,0.63588 0.05302,0.8129 -0.400873,0.95696 -0.626408,0.19881 -0.691803,0.65611 -0.263431,1.8421 0.280494,0.77658 0.350747,0.80848 1.5875,0.72086 0.71171,-0.0504 1.294019,-0.14564 1.294019,-0.21158 z m 6.940464,0.0691 c 0.543037,-0.0703 1.056079,-0.0166 1.140094,0.11932 0.08401,0.13594 0.592212,0.24288 1.129327,0.23765 l 0.976573,-0.01 -0.68827,-0.5858 c -0.75333,-0.64117 -1.560688,-2.11745 -1.560688,-2.85376 0,-1.09549 -0.213409,-1.22272 -1.581044,-0.94256 -1.237845,0.25357 -1.289838,0.29935 -1.147615,1.01046 0.137926,0.68963 0.08767,0.74486 -0.677852,0.74486 -0.708615,0 -0.826823,0.0959 -0.826823,0.67077 0,1.10279 0.726168,1.97005 1.544427,1.84451 0.387492,-0.0594 1.148834,-0.16562 1.691871,-0.23593 z m -3.500881,-0.0132 c 0,-0.0633 -0.125696,-0.44567 -0.279324,-0.84975 -0.362667,-0.95388 0.127035,-1.9456 0.960721,-1.9456 0.461717,0 0.561529,-0.11644 0.453599,-0.52917 -0.114143,-0.43648 -0.360896,-0.52916 -1.408798,-0.52916 -0.698731,0 -1.453516,-0.0703 -1.677302,-0.15614 -0.33885,-0.13003 -0.368631,-0.0228 -0.178113,0.64154 0.255522,0.89096 0.1481,1.1021 -0.560714,1.1021 -0.344332,0 -0.485069,0.19696 -0.485069,0.67885 0,1.31027 0.428746,1.7024 1.861392,1.7024 0.722485,0 1.313608,-0.0518 1.313608,-0.11507 z m 10.764074,-1.25746 c -0.08446,-0.21106 -0.147157,-0.14837 -0.159853,0.15985 -0.01149,0.27892 0.05105,0.43519 0.138965,0.34727 0.08792,-0.0879 0.09732,-0.31612 0.02089,-0.50712 z m -0.974491,0.0496 c 0,-0.14552 -0.119062,-0.26458 -0.264583,-0.26458 -0.145521,0 -0.264583,0.11906 -0.264583,0.26458 0,0.14552 0.119062,0.26458 0.264583,0.26458 0.145521,0 0.264583,-0.11906 0.264583,-0.26458 z m 2.381253,-0.79375 c 0,-0.14552 -0.11907,-0.26458 -0.26459,-0.26458 -0.14552,0 -0.26458,0.11906 -0.26458,0.26458 0,0.14552 0.11906,0.26458 0.26458,0.26458 0.14552,0 0.26459,-0.11906 0.26459,-0.26458 z m -3.439586,-0.11668 c 0,-0.0642 -0.119062,-0.19026 -0.264583,-0.28019 -0.145521,-0.0899 -0.264584,-0.0374 -0.264584,0.11667 0,0.15411 0.119063,0.2802 0.264584,0.2802 0.145521,0 0.264583,-0.0525 0.264583,-0.11668 z m 3.836456,-2.52915 c 0.0899,-0.14552 0.0374,-0.26459 -0.11667,-0.26459 -0.15411,0 -0.2802,0.11907 -0.2802,0.26459 0,0.14552 0.0525,0.26458 0.11667,0.26458 0.0642,0 0.19027,-0.11906 0.2802,-0.26458 z m -11.642472,-1.65365 c -0.101781,-0.9095 -0.267415,-1.7421 -0.368077,-1.85022 -0.17211,-0.18486 -1.649261,2.03021 -2.027831,3.04085 -0.151289,0.40388 0.0025,0.46302 1.203762,0.46302 h 1.377203 z m 3.043516,1.23255 c 0.360454,-0.10627 1.322917,-1.69556 1.322917,-2.18449 0,-0.31248 -3.669703,-2.01499 -3.883152,-1.80154 -0.103645,0.10365 -0.04624,0.87693 0.127561,1.7184 0.173804,0.84148 0.316007,1.80014 0.316007,2.13036 0,0.5365 0.09154,0.58199 0.859896,0.42735 0.472943,-0.0952 1.03849,-0.22573 1.256771,-0.29008 z m 3.836458,0.15651 c 0.08994,-0.14552 0.03743,-0.26458 -0.116676,-0.26458 -0.154109,0 -0.280199,0.11906 -0.280199,0.26458 0,0.14553 0.0525,0.26459 0.116677,0.26459 0.06417,0 0.190262,-0.11906 0.280198,-0.26459 z m 0.79375,-1.05833 c 0.08994,-0.14552 0.03743,-0.26458 -0.116676,-0.26458 -0.154109,0 -0.280199,0.11906 -0.280199,0.26458 0,0.14552 0.0525,0.26458 0.116677,0.26458 0.06417,0 0.190262,-0.11906 0.280198,-0.26458 z m 12.270968,-1.64645 3.53972,-1.14402 0.0355,-2.77195 c 0.0257,-2.0046 0.15715,-3.00996 0.47484,-3.63172 l 0.43929,-0.85977 -0.97185,0.12188 c -0.53451,0.067 -1.80528,0.18702 -2.82392,0.26663 -2.78511,0.21767 -6.8271,0.70454 -7.27605,0.87643 -0.21828,0.0836 -1.26007,0.11846 -2.3151,0.0775 -1.614518,-0.0626 -1.918229,-0.007 -1.918229,0.34976 0,0.32724 0.276058,0.42417 1.208019,0.42417 1.19748,0 2.16731,0.33865 2.57599,0.89951 0.14384,0.1974 0.31419,0.13197 0.52916,-0.20327 0.17437,-0.27192 0.52144,-0.74817 0.77126,-1.05834 l 0.45422,-0.56394 0.009,0.6866 c 0.005,0.37763 -0.22932,0.90209 -0.52037,1.16548 -0.67548,0.6113 -0.66609,0.75262 0.12762,1.92065 0.42328,0.62293 0.87008,0.97067 1.25677,0.97815 0.32999,0.006 0.61959,0.11737 0.64354,0.24662 0.0239,0.12925 0.18965,0.3253 0.36822,0.43567 0.24229,0.14974 0.18089,0.4026 -0.24198,0.99646 -0.31167,0.4377 -0.56667,0.92626 -0.56667,1.08569 0,0.15944 -0.10517,0.28989 -0.23372,0.28989 -0.12855,0 -0.29274,0.22568 -0.36488,0.50152 -0.11388,0.43548 -0.0395,0.47208 0.56446,0.27795 0.38258,-0.12297 2.28848,-0.73838 4.23532,-1.36759 z m -6.21287,-0.62736 c -0.4943,-0.77271 -0.89872,-1.52972 -0.89872,-1.68223 0,-0.46348 -0.48392,-0.30942 -0.58337,0.18573 -0.0519,0.25812 0.2939,0.86468 0.78129,1.37065 0.48086,0.49919 0.94644,1.19512 1.03463,1.54649 0.10886,0.43371 0.22531,0.53377 0.36262,0.31158 0.11987,-0.19394 -0.16387,-0.89967 -0.69645,-1.73222 z m -1.97665,-1.79061 c 0.27184,-0.50796 0.2683,-0.73068 -0.0189,-1.19063 -0.44039,-0.70517 -0.65458,-0.7146 -0.83188,-0.0366 -0.10255,0.39218 -0.36089,0.52917 -0.997906,0.52917 -0.834535,0 -0.845992,0.015 -0.394015,0.51439 0.256032,0.28291 0.720969,0.56435 1.033191,0.62542 0.31223,0.0611 0.63686,0.12726 0.72141,0.14708 0.0846,0.0198 0.30421,-0.24515 0.48814,-0.58881 z m -2.626239,0.24358 c 0,-0.0642 -0.119063,-0.19026 -0.264584,-0.2802 -0.14552,-0.0899 -0.264583,-0.0374 -0.264583,0.11668 0,0.15411 0.119063,0.28019 0.264583,0.28019 0.145521,0 0.264584,-0.0525 0.264584,-0.11667 z M 108.651,81.534367 c -0.17914,-0.0725 -0.53632,-0.0769 -0.79375,-0.01 -0.25744,0.0671 -0.11087,0.12638 0.32569,0.13177 0.43656,0.005 0.64719,-0.0495 0.46806,-0.12197 z m -34.268582,-1.33175 c -0.25466,-0.0666 -0.67138,-0.0666 -0.92604,0 -0.25466,0.0665 -0.0463,0.121 0.46302,0.121 0.50932,0 0.71768,-0.0545 0.46302,-0.121 z m 2.38433,-0.26399 c -0.25296,-0.0662 -0.72921,-0.0686 -1.05833,-0.005 -0.32912,0.0633 -0.12215,0.11747 0.45994,0.12041 0.58208,0.003 0.85136,-0.0489 0.59839,-0.11507 z m 2.5155,-0.25634 c -0.17914,-0.0725 -0.53632,-0.0769 -0.79375,-0.01 -0.25744,0.0671 -0.11087,0.12639 0.32569,0.13178 0.43656,0.005 0.64719,-0.0495 0.46806,-0.12197 z m -32.312989,-9.70331 c -0.279698,-0.33701 -0.24389,-0.49995 0.209516,-0.95335 0.731623,-0.73163 0.785422,-3.897852 0.08634,-5.081304 -0.601961,-1.019039 -0.228472,-1.276827 1.857898,-1.282353 1.161059,-0.0031 1.568825,0.09802 1.6922,0.419526 0.0894,0.232968 0.0215,0.510746 -0.150882,0.617285 -0.172383,0.106539 -0.338561,0.541007 -0.369283,0.965485 -0.05158,0.71267 0.02013,0.778066 0.936328,0.853895 0.890447,0.0737 0.992187,0.01784 0.992187,-0.544743 0,-0.344773 -0.168749,-0.857638 -0.374998,-1.139701 -0.57193,-0.78216 -0.04418,-1.175799 1.57638,-1.175799 0.770645,0 1.589504,0.07227 1.819687,0.160599 0.529923,0.203351 0.542777,0.793436 0.02164,0.993415 -0.593878,0.227893 -0.57314,4.984905 0.02389,5.480395 0.382572,0.31751 0.377982,0.38049 -0.05057,0.69386 -0.66759,0.48815 -3.129645,0.44848 -3.549316,-0.0572 -0.271879,-0.32759 -0.253422,-0.49032 0.0999,-0.88073 0.238365,-0.26339 0.433391,-0.86366 0.433391,-1.333925 0,-0.825943 -0.03368,-0.85224 -0.989987,-0.772916 -1.197663,0.09934 -1.413612,0.698807 -0.717428,1.991541 0.258242,0.47953 0.386296,0.9551 0.284567,1.05683 -0.10173,0.10173 -0.929519,0.23237 -1.839532,0.29032 -1.261,0.0803 -1.734814,0.009 -1.991923,-0.30114 z m 9.233574,0.0994 c -0.333297,-0.21082 -0.324214,-0.31305 0.06615,-0.74439 0.614093,-0.67857 0.656653,-4.846598 0.05563,-5.447626 -0.880668,-0.880667 -0.321954,-1.228423 1.973617,-1.228423 1.698329,0 2.563855,0.523217 1.681955,1.016753 -0.381957,0.213754 -0.494036,0.68903 -0.573112,2.430313 -0.08543,1.8811 -0.02506,2.263653 0.460885,2.920933 0.549174,0.7428 0.55001,0.76125 0.04667,1.03063 -0.633393,0.33898 -3.186629,0.35398 -3.711784,0.0218 z m 5.082708,0.0773 c -0.441943,-0.17833 -0.417364,-0.56968 0.06615,-1.05319 0.29269,-0.29269 0.396875,-1.00856 0.396875,-2.726959 0,-2.097647 -0.05729,-2.368119 -0.574328,-2.711419 -1.069194,-0.709918 -0.345139,-1.006121 2.45942,-1.006121 3.462336,0 4.439061,0.51186 4.456493,2.335457 0.01304,1.364398 -1.190723,2.427043 -2.749357,2.427043 -1.105823,0 -1.210978,0.0558 -1.210978,0.64256 0,0.353409 0.178594,0.821149 0.396875,1.039439 0.847202,0.8472 0.300924,1.24095 -1.675285,1.20753 -0.679323,-0.0115 -1.38396,-0.0809 -1.565861,-0.15434 z m 4.157916,-4.569948 c 0.387502,-0.724054 -0.08912,-1.869407 -0.77793,-1.869407 -0.458533,0 -0.535715,0.171537 -0.535715,1.190625 0,1.007129 0.08012,1.190625 0.519858,1.190625 0.285921,0 0.643126,-0.23033 0.793787,-0.511843 z m 3.607825,4.400528 c -0.428552,-0.31337 -0.433142,-0.37635 -0.05057,-0.69386 0.618076,-0.51295 0.622154,-5.576075 0.0045,-5.576075 -0.253847,0 -0.381672,-0.180668 -0.327592,-0.463021 0.07682,-0.401113 0.470065,-0.473077 2.941107,-0.538233 l 2.85242,-0.07521 0.81509,0.81509 c 0.70596,0.705963 0.79413,0.946284 0.65856,1.795003 -0.21285,1.332543 -1.2725,2.167494 -2.753,2.169224 -1.07533,0.0013 -1.12448,0.03637 -1.12448,0.803373 0,0.46886 0.16488,0.86532 0.39688,0.95434 0.52114,0.19998 0.50828,0.79007 -0.0216,0.99342 -0.74757,0.28687 -2.907564,0.16964 -3.391266,-0.18405 z m 4.293526,-4.504925 c 0.17023,-0.892716 -0.2021,-1.76501 -0.75337,-1.76501 -0.44598,0 -0.52413,0.180265 -0.52413,1.209027 0,1.100948 0.053,1.201469 0.59261,1.124479 0.32594,-0.0465 0.63414,-0.302325 0.68489,-0.568496 z m 5.34236,4.401205 c -2.52572,-1.31029 -2.84953,-4.90114 -0.59183,-6.56309 0.56175,-0.413521 1.13486,-0.529167 2.62238,-0.529167 1.80045,0 1.95301,0.04795 2.81703,0.885389 2.65034,2.568815 1.19984,6.306578 -2.5548,6.583388 -0.96631,0.0712 -1.64428,-0.0401 -2.29278,-0.37652 z m 3.17092,-1.53744 c 0.41292,-0.497547 0.16164,-2.287098 -0.4717,-3.359257 -0.33677,-0.570104 -0.61877,-0.743565 -1.11464,-0.685624 -0.62368,0.07287 -0.66215,0.166518 -0.63639,1.549129 0.0424,2.275592 1.2656,3.649022 2.22273,2.495752 z m 5.14261,1.58179 c -0.50495,-0.39722 -0.50357,-0.41112 0.0817,-0.82602 0.53641,-0.38025 0.59531,-0.64133 0.59531,-2.638692 0,-1.219178 -0.10061,-2.216687 -0.22358,-2.216687 -0.12296,0 -0.43907,0.238125 -0.70246,0.529167 -0.26339,0.291042 -0.69856,0.529167 -0.96705,0.529167 -0.62182,0 -0.66685,-1.214639 -0.0763,-2.057796 0.38645,-0.551739 0.60656,-0.588038 3.56577,-0.588038 3.05229,0 3.16754,0.02082 3.57728,0.646162 0.62123,0.948108 0.41113,1.848776 -0.45461,1.948909 -0.52095,0.06025 -0.75,-0.06058 -0.87773,-0.463021 -0.0951,-0.299502 -0.3434,-0.54455 -0.55188,-0.54455 -0.56745,0 -0.55042,4.640119 0.0178,4.858179 0.52208,0.20034 0.50863,0.86316 -0.0216,1.06664 -0.8461,0.32468 -3.44332,0.16514 -3.96268,-0.24342 z m 6.64717,0.16697 c -0.0806,-0.13037 0.0307,-0.57686 0.24734,-0.99219 0.24883,-0.4771 0.39444,-1.506328 0.39547,-2.795351 0.001,-1.756068 -0.0786,-2.114958 -0.57442,-2.576893 -0.31684,-0.295174 -0.48603,-0.627234 -0.37598,-0.737911 0.30715,-0.308924 6.49836,-0.504552 6.787192,-0.214461 0.34116,0.342651 0.31689,1.660613 -0.0346,1.877836 -0.156662,0.09683 -0.524592,-0.08129 -0.817612,-0.395809 -0.39661,-0.425713 -0.78023,-0.551232 -1.50109,-0.49116 -0.911,0.07592 -0.97319,0.139434 -1.05044,1.072883 -0.0692,0.835705 -6.7e-4,0.992187 0.43434,0.992187 0.33022,0 0.57632,-0.238516 0.68247,-0.661458 0.38953,-1.552018 1.36282,0.05748 1.0728,1.774067 -0.1847,1.093222 -0.77163,1.34931 -1.05394,0.459844 -0.20839,-0.65659 -1.00759,-0.582874 -1.14009,0.105159 -0.0509,0.2645 -0.0203,0.769147 0.0682,1.121437 0.24775,0.98712 1.8113,0.90145 2.79651,-0.15322 0.40781,-0.436558 0.872302,-0.793745 1.032202,-0.793745 0.38127,0 0.372,1.119625 -0.0163,1.971925 -0.30477,0.6689 -0.33119,0.67391 -3.556262,0.67391 -1.78706,0 -3.31513,-0.10667 -3.39571,-0.23705 z m 8.929972,-0.0294 c -0.69752,-0.28104 -1.14178,-1.04566 -1.14178,-1.96514 0,-0.893713 0.41435,-0.857726 1.32292,0.1149 0.89587,0.95904 2.38125,1.13688 2.38125,0.2851 0,-0.3474 -0.29568,-0.606229 -0.93276,-0.816484 -1.58763,-0.523964 -2.50682,-1.485029 -2.50682,-2.621014 0,-1.741616 1.63948,-2.756204 4.02303,-2.489641 1.65328,0.184895 2.32697,0.681206 2.32697,1.714298 0,0.960527 -0.53175,0.979514 -1.73475,0.06194 -0.52673,-0.401758 -1.08106,-0.623505 -1.32482,-0.529966 -0.76889,0.295052 -0.26256,1.005313 1.07519,1.50823 0.72761,0.273537 1.53128,0.750669 1.78594,1.060293 0.92138,1.120242 0.401,2.758184 -1.1274,3.548544 -0.82966,0.42904 -3.21785,0.50329 -4.14697,0.12894 z m 6.41587,0.0294 c -0.0806,-0.13037 0.0307,-0.57686 0.24734,-0.99219 0.24883,-0.4771 0.39444,-1.506328 0.39547,-2.795351 10e-4,-1.760973 -0.0778,-2.11425 -0.579,-2.581147 -0.36376,-0.3389 -0.48729,-0.633833 -0.33073,-0.789666 0.2875,-0.286162 6.27274,-0.429177 6.70783,-0.16028 0.37243,0.230175 0.37604,1.649792 0.005,1.879245 -0.15629,0.09659 -0.55092,-0.07497 -0.87694,-0.38126 -0.38126,-0.358167 -0.94075,-0.556886 -1.56792,-0.556886 -0.96127,0 -0.97513,0.01505 -0.97513,1.058333 0,0.869234 0.0913,1.058333 0.51076,1.058333 0.32824,0 0.54098,-0.212736 0.59531,-0.595312 0.1323,-0.931487 0.84915,-0.716252 1.10152,0.330729 0.36739,1.524159 -0.68372,3.339152 -1.0726,1.852083 -0.0784,-0.299871 -0.36089,-0.529166 -0.6519,-0.529166 -0.44051,0 -0.50195,0.159863 -0.43216,1.124479 0.0791,1.093836 0.10868,1.126736 1.08417,1.207226 0.83441,0.0689 1.12994,-0.0533 1.7598,-0.7276 1.03306,-1.105891 1.44814,-1.059767 1.25356,0.1393 -0.26312,1.62143 -0.43503,1.69618 -3.90066,1.69618 -1.71984,0 -3.19292,-0.10667 -3.27349,-0.23705 z"
       id="path3"
       clip-path="url(#clipPath7)"
       transform="translate(-43.034429,-66.679719)" /></g></svg>
